<svg width="48" height="11" viewBox="0 0 48 11" fill="none" xmlns="http://www.w3.org/2000/svg">
<g clip-path="url(#clip0_16_1921)">
<path d="M24.9942 3.53814C24.738 3.23039 24.4123 2.98795 24.044 2.83081C23.6083 2.65252 23.1403 2.56651 22.6697 2.57819C22.3229 2.5672 21.9779 2.63272 21.6592 2.7701C21.3791 2.89536 21.133 3.08594 20.9417 3.32586H20.8508V0.809048C20.8489 0.720277 20.8282 0.632923 20.79 0.552775C20.7518 0.472627 20.697 0.401514 20.6292 0.344149C20.4655 0.197992 20.2511 0.121786 20.0319 0.131868C19.8044 0.12284 19.5817 0.198477 19.4068 0.344149C19.3418 0.402739 19.29 0.4745 19.2549 0.554659C19.2198 0.634817 19.2021 0.721536 19.2031 0.809048V7.22677C19.1998 7.61718 19.2718 8.00456 19.4154 8.36763C19.5521 8.71744 19.7664 9.03172 20.0421 9.28683C20.3337 9.55617 20.6776 9.76255 21.0525 9.89312C21.5263 10.0447 22.022 10.1164 22.5193 10.1054C23.0009 10.1175 23.4796 10.028 23.9242 9.84259C24.3088 9.67901 24.6535 9.43425 24.9347 9.12508C25.1995 8.83175 25.4023 8.4879 25.5308 8.1142C25.6611 7.70288 25.7257 7.27359 25.7223 6.84214V5.95349C25.7252 5.49827 25.6606 5.04514 25.5304 4.60891C25.4248 4.21978 25.2426 3.85562 24.9946 3.53773L24.9942 3.53814ZM24.0444 6.84214C24.0723 7.29279 23.9278 7.7372 23.6402 8.08527C23.5041 8.23876 23.3355 8.36008 23.1467 8.44048C22.958 8.52088 22.7537 8.55835 22.5487 8.55017C22.1339 8.56459 21.7237 8.45936 21.3671 8.24702C21.2075 8.14837 21.0785 8.00723 20.9946 7.83941C20.9107 7.67159 20.8752 7.48372 20.892 7.29685V5.61979C20.8822 5.41107 20.9178 5.2027 20.9963 5.00905C21.0748 4.8154 21.1943 4.64107 21.3467 4.49809C21.6332 4.26817 21.9898 4.14335 22.3572 4.14442C22.5773 4.13484 22.7971 4.17123 23.0024 4.25127C23.2078 4.33131 23.3942 4.45325 23.5498 4.60932C23.8762 4.98592 24.0398 5.47673 24.0045 5.97387L24.0444 6.84214Z" fill="#6B6B6B"/>
<path d="M28.42 2.57702C28.192 2.56759 27.9686 2.64325 27.7933 2.7893C27.7208 2.84401 27.6613 2.91405 27.6191 2.99441C27.5768 3.07478 27.5528 3.16349 27.5488 3.2542V9.39934C27.5528 9.49006 27.5768 9.57877 27.6191 9.65913C27.6613 9.7395 27.7208 9.80954 27.7933 9.86424C27.9686 10.0103 28.192 10.086 28.42 10.0765C28.6389 10.0864 28.853 10.0102 29.0165 9.86424C29.0844 9.80695 29.1393 9.73587 29.1777 9.65572C29.2161 9.57557 29.2369 9.48818 29.2389 9.39934V3.2542C29.2369 3.16537 29.2161 3.07798 29.1777 2.99782C29.1393 2.91767 29.0844 2.84659 29.0165 2.7893C28.853 2.64335 28.6389 2.56716 28.42 2.57702Z" fill="#6B6B6B"/>
<path d="M28.42 0.00111179C28.192 -0.00832453 27.9686 0.0673369 27.7933 0.213393C27.7203 0.267593 27.6604 0.337519 27.6181 0.417993C27.5758 0.498467 27.5521 0.587429 27.5488 0.678292V1.01199C27.5521 1.10286 27.5758 1.19182 27.6181 1.27229C27.6604 1.35276 27.7203 1.42269 27.7933 1.47689C27.9686 1.62295 28.192 1.69861 28.42 1.68917C28.6386 1.69785 28.8521 1.62181 29.0161 1.47689C29.0838 1.41957 29.1386 1.34852 29.1768 1.26845C29.215 1.18838 29.2357 1.1011 29.2377 1.0124V0.66892C29.2357 0.580319 29.215 0.493142 29.1769 0.413144C29.1387 0.333147 29.0841 0.262149 29.0165 0.204836C28.8511 0.0629086 28.6376 -0.0100302 28.42 0.00111179Z" fill="#6B6B6B"/>
<path d="M37.0925 3.53798C36.8363 3.23023 36.5106 2.98779 36.1423 2.83065C35.7066 2.65236 35.2386 2.56635 34.768 2.57803C34.4211 2.56704 34.0762 2.63256 33.7575 2.76994C33.4774 2.8952 33.2313 3.08578 33.04 3.3257H32.9487V0.808891C32.9468 0.720088 32.926 0.632715 32.8877 0.552565C32.8494 0.472415 32.7945 0.401319 32.7267 0.343992C32.5632 0.198036 32.3491 0.121844 32.1302 0.131711C31.9022 0.122275 31.6788 0.197936 31.5035 0.343992C31.4442 0.405331 31.3982 0.478324 31.3685 0.55835C31.3389 0.638376 31.3261 0.72369 31.3311 0.808891V7.22661C31.3278 7.61702 31.3999 8.0044 31.5434 8.36747C31.6803 8.71733 31.8947 9.0316 32.1705 9.28667C32.4621 9.55601 32.8061 9.7624 33.181 9.89296C33.6548 10.0445 34.1505 10.1163 34.6478 10.1052C35.1293 10.1174 35.608 10.0278 36.0527 9.84243C36.4372 9.67885 36.7819 9.43409 37.0631 9.12492C37.328 8.83159 37.5307 8.48774 37.6592 8.11404C37.7894 7.7027 37.8539 7.27341 37.8503 6.84198V5.95334C37.8533 5.49812 37.7886 5.04498 37.6584 4.60876C37.5437 4.2174 37.3512 3.85321 37.0925 3.53798ZM36.1427 6.84198C36.1678 7.29399 36.0196 7.73855 35.7283 8.08511C35.5922 8.2386 35.4236 8.35993 35.2348 8.44033C35.0461 8.52072 34.8418 8.55819 34.6368 8.55001C34.222 8.56443 33.8118 8.4592 33.4552 8.24687C33.2956 8.14821 33.1666 8.00707 33.0827 7.83925C32.9988 7.67143 32.9633 7.48357 32.9801 7.2967V5.61964C32.9703 5.41091 33.0059 5.20254 33.0844 5.00889C33.1629 4.81524 33.2824 4.64091 33.4348 4.49793C33.7214 4.26792 34.0782 4.1431 34.4457 4.14427C34.6659 4.13468 34.8856 4.17107 35.0909 4.25111C35.2963 4.33115 35.4827 4.45309 35.6383 4.60916C35.9647 4.98576 36.1283 5.47657 36.093 5.97371L36.1427 6.84198Z" fill="#6B6B6B"/>
<path d="M40.5078 -0.000297734C40.2799 -0.00973406 40.0565 0.0659274 39.8812 0.211983C39.8082 0.266184 39.7483 0.33611 39.706 0.416584C39.6637 0.497058 39.64 0.586019 39.6367 0.676882V1.01058C39.64 1.10145 39.6637 1.19041 39.706 1.27088C39.7483 1.35135 39.8082 1.42128 39.8812 1.47548C40.0565 1.62154 40.2799 1.6972 40.5078 1.68776C40.7265 1.69645 40.94 1.6204 41.1039 1.47548C41.1737 1.41915 41.2306 1.3485 41.2708 1.2683C41.3109 1.18809 41.3333 1.10021 41.3366 1.01058V0.667918C41.3346 0.579185 41.3138 0.49189 41.2755 0.411815C41.2372 0.331739 41.1823 0.260709 41.1145 0.203427C40.9466 0.0589904 40.7289 -0.0141159 40.5078 -0.000297734Z" fill="#6B6B6B"/>
<path d="M40.5078 2.57701C40.2799 2.56757 40.0565 2.64323 39.8812 2.78929C39.8087 2.84399 39.7492 2.91403 39.707 2.9944C39.6647 3.07476 39.6407 3.16347 39.6367 3.25419V9.39933C39.6407 9.49004 39.6647 9.57875 39.707 9.65912C39.7492 9.73948 39.8087 9.80952 39.8812 9.86423C40.0565 10.0103 40.2799 10.0859 40.5078 10.0765C40.7268 10.0864 40.9409 10.0102 41.1044 9.86423C41.1723 9.80694 41.2272 9.73586 41.2656 9.65571C41.3039 9.57555 41.3248 9.48816 41.3268 9.39933V3.25419C41.3248 3.16535 41.3039 3.07796 41.2656 2.99781C41.2272 2.91766 41.1723 2.84658 41.1044 2.78929C40.941 2.64343 40.7266 2.56725 40.5078 2.57701Z" fill="#6B6B6B"/>
<path d="M47.5732 8.66267C47.5112 8.59783 47.4354 8.54782 47.3514 8.51636C47.2673 8.4849 47.1773 8.47279 47.088 8.48094C46.9336 8.46212 46.7775 8.46212 46.6231 8.48094C46.4619 8.50043 46.299 8.50043 46.1378 8.48094C46.0488 8.48708 45.9596 8.47088 45.8784 8.43381C45.7972 8.39673 45.7266 8.33997 45.6729 8.26866C45.5475 8.04659 45.4814 7.79598 45.481 7.54096V4.04383H46.5522C46.6331 4.04408 46.7133 4.02814 46.7879 3.99693C46.8626 3.96572 46.9303 3.91988 46.9869 3.8621C47.0516 3.79749 47.1021 3.72008 47.1351 3.63484C47.1682 3.54959 47.1831 3.45838 47.1788 3.36706C47.1807 3.28051 47.1646 3.19452 47.1316 3.11451C47.0985 3.03449 47.0493 2.96219 46.9869 2.90216C46.9303 2.84438 46.8626 2.79854 46.7879 2.76733C46.7133 2.73612 46.6331 2.72018 46.5522 2.72043H45.481V1.24425V1.31596C45.4857 1.23907 45.4672 1.16255 45.4279 1.09631C45.3886 1.03007 45.3303 0.977177 45.2605 0.944497C45.1907 0.911817 45.1128 0.900857 45.0367 0.913039C44.9607 0.925222 44.89 0.959985 44.834 1.01282L42.7116 3.37602C42.6595 3.43146 42.6251 3.50112 42.6126 3.57615C42.6002 3.65119 42.6103 3.72823 42.6416 3.79752C42.673 3.86681 42.7242 3.92523 42.7888 3.96537C42.8534 4.00552 42.9285 4.02559 43.0045 4.02305H43.8333V7.47943C43.7606 8.19297 43.9432 8.90917 44.3487 9.50079C44.5618 9.71377 44.8184 9.8782 45.101 9.98284C45.3836 10.0875 45.6854 10.1299 45.9858 10.1071C46.2045 10.1223 46.424 10.1223 46.6426 10.1071C46.8307 10.0824 47.0144 10.0314 47.1882 9.9555C47.337 9.89314 47.4688 9.79604 47.5724 9.67232C47.6707 9.54557 47.7208 9.38804 47.7138 9.2278C47.7293 9.1288 47.7248 9.02769 47.7006 8.93047C47.6763 8.83326 47.6327 8.74191 47.5724 8.66185L47.5732 8.66267Z" fill="#6B6B6B"/>
<path d="M9.60153 0.132812L8.08541 2.15417H14.1495V8.21822H2.02135V2.15417H8.08541L6.5693 0.132812H2.02135C1.48526 0.132813 0.971118 0.345776 0.592041 0.724853C0.212963 1.10393 0 1.61807 0 2.15417L0 8.21822C0 8.75432 0.212963 9.26846 0.592041 9.64754C0.971118 10.0266 1.48526 10.2396 2.02135 10.2396H14.1495C14.6856 10.2396 15.1997 10.0266 15.5788 9.64754C15.9579 9.26846 16.1708 8.75432 16.1708 8.21822V2.15417C16.1708 1.61807 15.9579 1.10393 15.5788 0.724853C15.1997 0.345776 14.6856 0.132813 14.1495 0.132812H9.60153Z" fill="#6B6B6B"/>
<path d="M4.04297 4.17578H6.06432V6.19713H4.04297V4.17578Z" fill="#6B6B6B"/>
<path d="M10.1074 4.17578H12.1288V6.19713H10.1074V4.17578Z" fill="#6B6B6B"/>
</g>
<defs>
<clipPath id="clip0_16_1921">
<rect width="47.7232" height="10.24" fill="white"/>
</clipPath>
</defs>
</svg>
