<svg width="39" height="10" viewBox="0 0 39 10" fill="none" xmlns="http://www.w3.org/2000/svg">
<path d="M2.19581 1.11072V3.01154C0.843404 4.56184 0.0176002 6.59305 0 8.81875C0 8.83229 0 8.84511 0 8.85936C0 8.86862 0 8.8786 0 8.88786V1.11072C0 0.497293 0.491399 0 1.09755 0C1.70441 0 2.19581 0.497293 2.19581 1.11072Z" fill="#6B6B6B"/>
<path d="M7.24989 1.5023C7.27172 1.83217 7.15204 2.13353 6.94506 2.35083C6.82819 2.47409 6.68176 2.56457 6.52265 2.62228C6.49238 2.63296 6.4614 2.64508 6.43887 2.65363C5.42862 3.0412 4.53734 3.67386 3.83474 4.47893C3.24337 4.55445 2.68932 4.74895 2.19581 5.03821C0.901837 5.79555 0.0246403 7.20264 0 8.81849C0.0168962 6.59207 0.8427 4.56158 2.1951 3.01199C3.142 1.92621 4.34726 1.07697 5.71374 0.562574C5.71374 0.562574 5.71374 0.562574 5.71445 0.562574C5.7581 0.546188 5.80174 0.529801 5.84539 0.51484L5.84891 0.513415C5.95944 0.481354 6.07631 0.46568 6.1981 0.470668C6.75357 0.492754 7.21188 0.9416 7.24919 1.50301L7.24989 1.5023Z" fill="#6B6B6B"/>
<path d="M8.78252 8.8715V8.88504C8.77478 9.49205 8.2862 9.98222 7.68497 9.98222C7.08375 9.98222 6.59446 9.49205 6.58742 8.88504C6.58742 7.6582 5.60462 6.6629 4.39161 6.6629C3.1786 6.6629 2.19581 7.65748 2.19581 8.88504C2.19581 8.92351 2.19369 8.96127 2.19017 8.99832C2.13385 9.55831 1.66639 9.99576 1.09826 9.99576C0.501255 9.99647 0.0154882 9.51485 0 8.91425C0 8.90499 0 8.89501 0 8.88575C0 8.87649 0 8.86652 0 8.85725C0 8.84372 0 8.83018 0 8.81664C0.0239363 7.2008 0.901133 5.7937 2.1951 5.03637C2.68861 4.74782 3.24267 4.55261 3.83404 4.47709C4.01638 4.45358 4.20224 4.44147 4.39091 4.44147C6.80214 4.44147 8.75929 6.40784 8.78182 8.84301C8.78182 8.85227 8.78182 8.86224 8.78182 8.8715H8.78252Z" fill="#6B6B6B"/>
<path d="M11.3724 7.04434L11.2577 7.32434C11.2929 7.22958 11.3309 7.13625 11.3724 7.04434Z" fill="#6B6B6B"/>
<path d="M18.9068 8.51382L18.8645 8.41194L18.3914 7.25848C18.3914 7.25848 18.3886 7.25207 18.3879 7.24922L18.3316 7.111C18.3316 7.111 18.3309 7.10958 18.3302 7.10815L15.8366 1.03448C15.5796 0.408236 14.9756 0 14.3054 0C13.6351 0 13.0311 0.408236 12.7741 1.03448L10.3073 7.04546L10.1925 7.32545L9.73281 8.44471L9.72014 8.47606C9.72014 8.47606 9.71873 8.47891 9.71873 8.48034C9.66945 8.60644 9.6427 8.74394 9.6427 8.88786C9.6427 9.20561 9.77435 9.49202 9.98626 9.69436C10.1834 9.88245 10.4481 9.99858 10.741 9.99858C10.8346 9.99858 10.9254 9.98646 11.012 9.96438C11.3457 9.87888 11.6189 9.63736 11.7519 9.32174C11.7526 9.32032 11.7533 9.31818 11.7547 9.31604L11.93 8.88786L12.2426 8.12625C12.2426 8.12625 12.2426 8.12482 12.2433 8.1234C12.2644 8.06426 12.2884 8.00656 12.3144 7.95027C12.6636 7.19151 13.4239 6.66572 14.3054 6.66572C15.1868 6.66572 15.995 7.22571 16.3287 8.02294L16.6835 8.88786L16.8335 9.25335L16.8827 9.37304C17.0264 9.67227 17.2988 9.89669 17.6262 9.97221C17.705 9.99074 17.7874 10 17.8719 10C18.1626 10 18.4273 9.88601 18.6238 9.69934C18.8378 9.4963 18.9715 9.20775 18.9715 8.88786C18.9715 8.75677 18.949 8.63066 18.9082 8.51382H18.9068ZM14.3047 4.44429C14.1125 4.44429 13.9238 4.45711 13.7379 4.48133L14.3061 3.09704L14.8742 4.48205C14.6876 4.45711 14.4976 4.445 14.3047 4.445V4.44429Z" fill="#6B6B6B"/>
<path d="M28.5447 8.88786C28.5447 9.502 28.0526 10 27.4457 10C27.1296 10 26.8438 9.86463 26.6438 9.64805L26.5784 9.5711L21.9565 4.11513V8.86577C21.9565 9.48846 21.4532 10.0107 20.8372 9.99858C20.2212 9.98646 19.7607 9.49416 19.7607 8.88786V1.05372C19.7896 0.485181 20.2402 0.0284981 20.802 0H20.9153C21.154 0.0121117 21.3722 0.101168 21.5468 0.243659C21.5996 0.286406 21.6468 0.335566 21.6904 0.387575L26.3475 5.88558V1.11072C26.3475 0.497293 26.8389 0 27.445 0C28.0512 0 28.5426 0.497293 28.5426 1.11072V8.83015C28.5433 8.84939 28.544 8.86791 28.544 8.88715L28.5447 8.88786Z" fill="#6B6B6B"/>
<path d="M31.1787 0C31.7849 0 32.2763 0.497293 32.2763 1.11072V5.55429C32.2763 4.94087 31.7849 4.44357 31.1787 4.44357C30.5726 4.44357 30.096 4.92519 30.0812 5.52579C30.0812 5.53505 30.0812 5.54503 30.0812 5.55429V1.11072C30.0812 0.497293 30.5726 0 31.1787 0Z" fill="#6B6B6B"/>
<path d="M37.7656 0C38.3718 0 38.8632 0.497293 38.8632 1.11072V5.55429C38.8632 5.54503 38.8632 5.53505 38.8632 5.52579C38.8484 4.92519 38.3626 4.44357 37.7656 4.44357C37.1686 4.44357 36.6681 4.94087 36.6681 5.55429V1.11072C36.6681 0.497293 37.1595 0 37.7656 0Z" fill="#6B6B6B"/>
<path d="M38.8633 5.55444C38.8633 6.88174 38.2881 8.07296 37.3764 8.8873C36.602 9.57838 35.5854 9.99801 34.4717 9.99801C33.3579 9.99801 32.3414 9.57838 31.5669 8.8873C30.6553 8.07296 30.0801 6.88174 30.0801 5.55444C30.0801 5.54518 30.0801 5.5352 30.0801 5.52594C30.0949 4.92534 30.5806 4.44373 31.1776 4.44373C31.7746 4.44373 32.2752 4.94102 32.2752 5.55444C32.2752 6.78129 33.258 7.77658 34.471 7.77658C35.684 7.77658 36.6668 6.782 36.6668 5.55444C36.6668 4.94102 37.1582 4.44373 37.7643 4.44373C38.3705 4.44373 38.8471 4.92534 38.8619 5.52594C38.8619 5.5352 38.8619 5.54518 38.8619 5.55444H38.8633Z" fill="#6B6B6B"/>
</svg>
