<svg width="68" height="16" viewBox="0 0 68 16" fill="none" xmlns="http://www.w3.org/2000/svg">
<path d="M62.8619 11.5332V4.4516H63.8693V7.38396L63.7696 7.34407C63.8361 7.05815 63.9491 6.82542 64.1087 6.64589C64.2683 6.4597 64.4611 6.32339 64.6872 6.23695C64.9133 6.15051 65.1626 6.10729 65.4352 6.10729C65.8076 6.10729 66.1201 6.19373 66.3728 6.36661C66.6321 6.53285 66.825 6.7689 66.9513 7.07477C67.0843 7.37399 67.1508 7.71976 67.1508 8.11207V11.5332H66.1434V8.37139C66.1434 7.89264 66.0569 7.54355 65.8841 7.32412C65.7178 7.09804 65.4685 6.985 65.136 6.985C64.757 6.985 64.4511 7.10469 64.2184 7.34407C63.9857 7.58344 63.8693 7.93586 63.8693 8.40131V11.5332H62.8619Z" fill="#6B6B6B"/>
<path d="M59.5865 11.6534C59.0944 11.6534 58.6589 11.5404 58.2799 11.3143C57.9075 11.0816 57.6183 10.7591 57.4121 10.3468C57.2127 9.9279 57.1129 9.43917 57.1129 8.88063C57.1129 8.32208 57.2127 7.83668 57.4121 7.42442C57.6183 7.01216 57.9075 6.68967 58.2799 6.45694C58.6589 6.22421 59.0944 6.10785 59.5865 6.10785C59.9921 6.10785 60.3545 6.18432 60.6736 6.33725C60.9928 6.48354 61.2555 6.69964 61.4616 6.98556C61.6677 7.27149 61.804 7.61393 61.8705 8.01289L60.8432 8.08271C60.7634 7.74359 60.6138 7.48426 60.3944 7.30473C60.1749 7.1252 59.909 7.03543 59.5964 7.03543C59.1509 7.03543 58.7985 7.20167 58.5392 7.53413C58.2865 7.85995 58.1602 8.30878 58.1602 8.88063C58.1602 9.45247 58.2865 9.90463 58.5392 10.2371C58.7985 10.5629 59.1509 10.7258 59.5964 10.7258C59.9156 10.7258 60.1882 10.6327 60.4143 10.4466C60.647 10.2537 60.8 9.97112 60.8731 9.59876L61.9004 9.6586C61.834 10.0642 61.6943 10.4166 61.4815 10.7158C61.2688 11.0084 60.9995 11.2378 60.6736 11.4041C60.3545 11.5703 59.9921 11.6534 59.5865 11.6534Z" fill="#6B6B6B"/>
<path d="M54.0765 11.6534C53.5778 11.6534 53.1423 11.5404 52.7699 11.3143C52.4042 11.0882 52.1183 10.7657 51.9121 10.3468C51.7127 9.9279 51.6129 9.43917 51.6129 8.88063C51.6129 8.32208 51.7127 7.83668 51.9121 7.42442C52.1183 7.01216 52.4009 6.68967 52.7599 6.45694C53.1256 6.22421 53.5545 6.10785 54.0466 6.10785C54.5187 6.10785 54.9343 6.22089 55.2933 6.44697C55.6524 6.66639 55.9317 6.98556 56.1311 7.40447C56.3373 7.81673 56.4403 8.31543 56.4403 8.90058V9.17985H52.6702C52.7034 9.6852 52.843 10.0709 53.0891 10.3368C53.3417 10.5962 53.6742 10.7258 54.0865 10.7258C54.399 10.7258 54.6583 10.6527 54.8644 10.5064C55.0706 10.3535 55.2135 10.1573 55.2933 9.91793L56.3506 9.98775C56.1976 10.4931 55.9217 10.8987 55.5227 11.2046C55.1304 11.5038 54.6483 11.6534 54.0765 11.6534ZM52.6702 8.37195H55.3532C55.3133 7.9198 55.1736 7.584 54.9343 7.36458C54.7015 7.14515 54.4056 7.03543 54.0466 7.03543C53.6742 7.03543 53.3683 7.14847 53.129 7.37455C52.8896 7.60063 52.7367 7.9331 52.6702 8.37195Z" fill="#6B6B6B"/>
<path d="M48.6502 11.5332V5.43903H46.5756V4.4516H51.7621V5.43903H49.6875V11.5332H48.6502Z" fill="#6B6B6B"/>
<path d="M41.8247 11.5337V6.22754H42.7523L42.7822 7.61393L42.6725 7.53413C42.739 7.20832 42.8554 6.94234 43.0216 6.73621C43.1945 6.52343 43.4039 6.36717 43.65 6.26743C43.896 6.16104 44.1586 6.10785 44.4379 6.10785C44.8369 6.10785 45.166 6.19762 45.4253 6.37715C45.6847 6.55003 45.8808 6.78941 46.0138 7.09528C46.1468 7.3945 46.2133 7.73362 46.2133 8.11263V11.5337H45.2059V8.37195C45.2059 7.91315 45.1161 7.56738 44.9366 7.33465C44.7637 7.10193 44.5011 6.98556 44.1487 6.98556C43.9026 6.98556 43.6799 7.03876 43.4804 7.14515C43.2876 7.25154 43.1313 7.41112 43.0116 7.6239C42.8919 7.83003 42.8321 8.08603 42.8321 8.3919V11.5337H41.8247Z" fill="#6B6B6B"/>
<path d="M38.4558 11.6534C37.9571 11.6534 37.5215 11.5404 37.1492 11.3143C36.7835 11.0882 36.4975 10.7657 36.2914 10.3468C36.0919 9.9279 35.9922 9.43917 35.9922 8.88063C35.9922 8.32208 36.0919 7.83668 36.2914 7.42442C36.4975 7.01216 36.7801 6.68967 37.1392 6.45694C37.5049 6.22421 37.9338 6.10785 38.4259 6.10785C38.898 6.10785 39.3135 6.22089 39.6726 6.44697C40.0317 6.66639 40.3109 6.98556 40.5104 7.40447C40.7166 7.81673 40.8196 8.31543 40.8196 8.90058V9.17985H37.0494C37.0827 9.6852 37.2223 10.0709 37.4683 10.3368C37.721 10.5962 38.0535 10.7258 38.4657 10.7258C38.7783 10.7258 39.0376 10.6527 39.2437 10.5064C39.4499 10.3535 39.5928 10.1573 39.6726 9.91793L40.7299 9.98775C40.5769 10.4931 40.301 10.8987 39.902 11.2046C39.5097 11.5038 39.0276 11.6534 38.4558 11.6534ZM37.0494 8.37195H39.7324C39.6926 7.9198 39.5529 7.584 39.3135 7.36458C39.0808 7.14515 38.7849 7.03543 38.4259 7.03543C38.0535 7.03543 37.7476 7.14847 37.5082 7.37455C37.2689 7.60063 37.1159 7.9331 37.0494 8.37195Z" fill="#6B6B6B"/>
<path d="M32.7223 13.1495C32.3233 13.1495 31.9676 13.0863 31.6551 12.96C31.3425 12.8337 31.0832 12.6541 30.8771 12.4214C30.6776 12.1887 30.538 11.9194 30.4582 11.6135L31.5154 11.5437C31.5886 11.7631 31.7182 11.936 31.9044 12.0623C32.0906 12.1887 32.3632 12.2518 32.7223 12.2518C33.1678 12.2518 33.5069 12.1588 33.7396 11.9726C33.979 11.7864 34.0987 11.5104 34.0987 11.1447V10.3668C33.9724 10.6394 33.7729 10.8555 33.5002 11.0151C33.2343 11.1747 32.9251 11.2544 32.5727 11.2544C32.1338 11.2544 31.7415 11.1447 31.3957 10.9253C31.05 10.7059 30.7807 10.4067 30.5878 10.0276C30.395 9.64198 30.2986 9.1998 30.2986 8.7011C30.2986 8.18245 30.3917 7.73029 30.5779 7.34463C30.7707 6.95897 31.0367 6.65642 31.3758 6.43699C31.7149 6.21756 32.1006 6.10785 32.5328 6.10785C32.9051 6.10785 33.2309 6.19429 33.5102 6.36717C33.7961 6.53341 34.0023 6.76281 34.1286 7.05538L34.1386 6.22754H35.1061V11.0749C35.1061 11.5204 35.0096 11.8961 34.8168 12.202C34.624 12.5145 34.348 12.7506 33.989 12.9101C33.6366 13.0697 33.2143 13.1495 32.7223 13.1495ZM32.7123 10.3568C33.1246 10.3568 33.457 10.2105 33.7097 9.91793C33.9624 9.62536 34.092 9.21642 34.0987 8.69112C34.1053 8.33206 34.0488 8.02951 33.9291 7.78349C33.8161 7.53081 33.6532 7.33798 33.4404 7.20499C33.2343 7.07201 32.9916 7.00551 32.7123 7.00551C32.2801 7.00551 31.9443 7.15512 31.7049 7.45434C31.4722 7.74691 31.3558 8.15917 31.3558 8.69112C31.3558 9.21642 31.4755 9.62536 31.7149 9.91793C31.9609 10.2105 32.2934 10.3568 32.7123 10.3568Z" fill="#6B6B6B"/>
<path d="M27.1884 11.6534C26.6897 11.6534 26.2542 11.5404 25.8818 11.3143C25.5161 11.0882 25.2302 10.7657 25.0241 10.3468C24.8246 9.9279 24.7249 9.43917 24.7249 8.88063C24.7249 8.32208 24.8246 7.83668 25.0241 7.42442C25.2302 7.01216 25.5128 6.68967 25.8719 6.45694C26.2376 6.22421 26.6665 6.10785 27.1585 6.10785C27.6306 6.10785 28.0462 6.22089 28.4053 6.44697C28.7643 6.66639 29.0436 6.98556 29.2431 7.40447C29.4492 7.81673 29.5523 8.31543 29.5523 8.90058V9.17985H25.7821C25.8153 9.6852 25.955 10.0709 26.201 10.3368C26.4537 10.5962 26.7862 10.7258 27.1984 10.7258C27.5109 10.7258 27.7703 10.6527 27.9764 10.5064C28.1825 10.3535 28.3255 10.1573 28.4053 9.91793L29.4625 9.98775C29.3096 10.4931 29.0336 10.8987 28.6347 11.2046C28.2424 11.5038 27.7603 11.6534 27.1884 11.6534ZM25.7821 8.37195H28.4651C28.4252 7.9198 28.2856 7.584 28.0462 7.36458C27.8135 7.14515 27.5176 7.03543 27.1585 7.03543C26.7862 7.03543 26.4803 7.14847 26.2409 7.37455C26.0015 7.60063 25.8486 7.9331 25.7821 8.37195Z" fill="#6B6B6B"/>
<path d="M19.1615 11.5332V4.4516H21.3658C22.1171 4.4516 22.7056 4.64111 23.1312 5.02012C23.5634 5.39913 23.7795 5.91446 23.7795 6.56609C23.7795 6.90521 23.703 7.20443 23.5501 7.46376C23.4038 7.72308 23.2076 7.92589 22.9616 8.07217C22.7222 8.21846 22.4662 8.30157 22.1936 8.32152L22.1537 8.20183C22.6458 8.22178 23.0115 8.33482 23.2509 8.54095C23.4969 8.74043 23.6398 9.06625 23.6797 9.5184L23.8593 11.5332H22.812L22.6524 9.71789C22.6325 9.48516 22.5826 9.29898 22.5028 9.15934C22.423 9.0197 22.3 8.91996 22.1338 8.86012C21.9675 8.80028 21.7381 8.77035 21.4456 8.77035H20.2088V11.5332H19.1615ZM20.2088 7.7929H21.3458C21.7847 7.7929 22.1205 7.68983 22.3532 7.4837C22.5859 7.27757 22.7023 6.98833 22.7023 6.61596C22.7023 6.23695 22.5859 5.9477 22.3532 5.74822C22.1205 5.54209 21.7847 5.43903 21.3458 5.43903H20.2088V7.7929Z" fill="#6B6B6B"/>
<path d="M8.52632 0H1.88386L6.05263 4.87029H0L10.8802 16V8.70265H16L8.52632 0Z" fill="#6B6B6B"/>
</svg>
