<svg width="40" height="20" viewBox="0 0 40 20" fill="none" xmlns="http://www.w3.org/2000/svg">
<g clip-path="url(#clip0_16_1933)">
<path d="M7.02591 10.7902H6.076L6.02734 10.6207L8.1221 8.42188H8.21942V9.83399H9.8025C9.83479 9.97124 9.85112 10.1246 9.85112 10.2939C9.85112 10.3829 9.84698 10.4677 9.83905 10.5482C9.83072 10.6289 9.81868 10.7097 9.8025 10.7902H8.21942V13.7481C8.21942 14.0871 8.23344 14.3574 8.26206 14.5591C8.29032 14.761 8.33901 14.9161 8.40797 15.0251C8.47692 15.1341 8.57039 15.2068 8.68826 15.243C8.80566 15.2795 8.95388 15.2975 9.1327 15.2975C9.27072 15.2975 9.40063 15.2875 9.52243 15.2672C9.64415 15.2474 9.7538 15.2249 9.85112 15.2005C9.90789 15.3623 9.94243 15.5275 9.95472 15.697C9.96679 15.8663 9.97281 16.0158 9.97281 16.1448C9.81043 16.1852 9.63978 16.2154 9.4614 16.2357C9.28276 16.2556 9.092 16.266 8.88922 16.266C8.30463 16.266 7.84786 16.1247 7.51916 15.8422C7.19046 15.5599 7.02591 15.0917 7.02591 14.4382V10.7902Z" fill="#6B6B6B"/>
<path d="M13.0629 16.3127C12.5758 16.3127 12.1495 16.2298 11.7842 16.0646C11.4189 15.8993 11.1145 15.671 10.8709 15.3805C10.6272 15.0901 10.4466 14.747 10.329 14.3518C10.2112 13.9564 10.1523 13.5285 10.1523 13.0685C10.1523 12.6085 10.2112 12.181 10.329 11.7854C10.4466 11.3901 10.6272 11.0471 10.8709 10.7565C11.1145 10.4661 11.4189 10.2362 11.7842 10.0665C12.1495 9.89717 12.5758 9.8125 13.0629 9.8125C13.5497 9.8125 13.9762 9.89717 14.3416 10.0665C14.7068 10.2362 15.0113 10.4661 15.2548 10.7565C15.4984 11.0471 15.679 11.3901 15.7968 11.7854C15.9141 12.181 15.9734 12.6085 15.9734 13.0685C15.9734 13.5285 15.9141 13.9564 15.7968 14.3518C15.679 14.747 15.4984 15.0901 15.2548 15.3805C15.0113 15.671 14.7068 15.8993 14.3416 16.0646C13.9762 16.2298 13.5497 16.3127 13.0629 16.3127ZM13.0629 15.3566C13.6228 15.3566 14.037 15.1548 14.305 14.7511C14.5729 14.3476 14.7068 13.7869 14.7068 13.0685C14.7068 12.3503 14.5729 11.7915 14.305 11.392C14.037 10.9925 13.6228 10.7928 13.0629 10.7928C12.5027 10.7928 12.0905 10.9925 11.8268 11.392C11.5629 11.7915 11.4311 12.3503 11.4311 13.0685C11.4311 13.7869 11.5629 14.3476 11.8268 14.7511C12.0905 15.1548 12.5027 15.3566 13.0629 15.3566Z" fill="#6B6B6B"/>
<path d="M21.0903 15.0901C21.1553 15.2031 21.2121 15.3442 21.2608 15.5139C21.3096 15.6834 21.3379 15.8568 21.3462 16.0344C20.867 16.2198 20.3189 16.3127 19.7021 16.3127C18.6627 16.3127 17.8794 16.0203 17.352 15.4349C16.8241 14.8501 16.5605 14.0611 16.5605 13.0685C16.5605 12.6085 16.6251 12.181 16.7552 11.7854C16.8848 11.3901 17.0778 11.0471 17.3336 10.7565C17.5894 10.4661 17.9078 10.2362 18.2896 10.0665C18.6713 9.89717 19.1134 9.8125 19.617 9.8125C19.9578 9.8125 20.2581 9.83261 20.5181 9.87269C20.7778 9.91328 21.0253 9.97783 21.2608 10.0665C21.2608 10.2039 21.2425 10.3632 21.2061 10.5446C21.1695 10.7262 21.1186 10.8857 21.0539 11.0229C20.656 10.8857 20.2012 10.8171 19.6898 10.8171C19.0648 10.8171 18.5981 11.0229 18.2896 11.4344C17.981 11.8458 17.827 12.3906 17.827 13.0685C17.827 13.8433 18.0012 14.4104 18.3504 14.7693C18.6994 15.1284 19.1785 15.3079 19.7875 15.3079C20.031 15.3079 20.2563 15.2918 20.4633 15.2595C20.6701 15.2275 20.8789 15.1708 21.0903 15.0901Z" fill="#6B6B6B"/>
<path d="M21.9922 7.20761C22.0833 7.19154 22.1848 7.17905 22.2963 7.17094C22.4082 7.16257 22.5097 7.1582 22.6006 7.1582C22.6917 7.1582 22.7952 7.16257 22.9112 7.17094C23.0269 7.17905 23.1302 7.19154 23.2215 7.20761V16.2549C23.1302 16.2713 23.0269 16.2836 22.9112 16.2921C22.7952 16.3 22.6917 16.3042 22.6006 16.3042C22.5097 16.3042 22.4082 16.3 22.2963 16.2921C22.1848 16.2836 22.0833 16.2713 21.9922 16.2549V7.20761Z" fill="#6B6B6B"/>
<path d="M27.543 7.29638C27.6323 7.28038 27.7318 7.26827 27.8415 7.26027C27.951 7.25216 28.0503 7.24805 28.1398 7.24805C28.2291 7.24805 28.3305 7.25216 28.4444 7.26027C28.5578 7.26827 28.6592 7.28038 28.7488 7.29638V10.7101C28.8948 10.468 29.1222 10.2582 29.4308 10.0806C29.7392 9.90308 30.1128 9.81442 30.5512 9.81442C30.9244 9.81442 31.2696 9.87464 31.5862 9.99586C31.9028 10.117 32.1746 10.3046 32.4021 10.5588C32.6292 10.813 32.8058 11.1357 32.9316 11.5272C33.0576 11.9186 33.1205 12.3806 33.1205 12.9131C33.1205 13.9783 32.8179 14.8116 32.2132 15.4129C31.6084 16.0141 30.7377 16.3146 29.6013 16.3146C29.2438 16.3146 28.8765 16.2802 28.499 16.2116C28.1215 16.1433 27.8029 16.0645 27.543 15.9756V7.29638ZM28.7488 15.1645C28.8948 15.213 29.0512 15.2477 29.2177 15.2675C29.3839 15.2878 29.5565 15.2978 29.7352 15.2978C30.0354 15.2978 30.3137 15.2513 30.5695 15.1586C30.8251 15.0659 31.0462 14.9246 31.233 14.7349C31.4196 14.5454 31.5677 14.3033 31.6774 14.0086C31.7871 13.7141 31.8418 13.3652 31.8418 12.9618C31.8418 12.2919 31.7241 11.7711 31.4888 11.4001C31.253 11.029 30.8635 10.8431 30.3197 10.8431C30.1329 10.8431 29.9483 10.8735 29.7656 10.9339C29.5829 10.9945 29.4141 11.0913 29.2602 11.2245C29.106 11.3576 28.9822 11.5352 28.8888 11.7572C28.7955 11.979 28.7488 12.2473 28.7488 12.562V15.1645Z" fill="#6B6B6B"/>
<path d="M34.0973 10.8336H33.2808C33.2637 10.7673 33.2511 10.6899 33.2429 10.6027C33.2342 10.5151 33.2305 10.4298 33.2305 10.3465C33.2305 10.2635 33.2342 10.178 33.2429 10.0904C33.2511 10.0032 33.2637 9.92612 33.2808 9.85938H35.3161V16.2669C35.2238 16.2836 35.1213 16.2962 35.0082 16.3043C34.8951 16.3125 34.7925 16.3169 34.7005 16.3169C34.6166 16.3169 34.5181 16.3125 34.405 16.3043C34.2921 16.2962 34.1896 16.2836 34.0973 16.2669V10.8336Z" fill="#6B6B6B"/>
<path d="M36.8207 10.7903H35.871L35.8223 10.6208L37.9169 8.42383H38.0145V9.83412H39.5976C39.6299 9.97135 39.646 10.1247 39.646 10.294C39.646 10.3831 39.642 10.4678 39.6339 10.5483C39.6259 10.629 39.6138 10.7098 39.5976 10.7903H38.0145V13.7499C38.0145 14.0889 38.0284 14.3593 38.0571 14.561C38.0853 14.7629 38.1341 14.9181 38.2031 15.0271C38.2721 15.1361 38.3653 15.2088 38.4835 15.2448C38.6005 15.2812 38.7492 15.2995 38.9275 15.2995C39.0655 15.2995 39.1958 15.2893 39.3172 15.2692C39.4391 15.2491 39.5488 15.2267 39.646 15.2025C39.7029 15.3642 39.7374 15.5295 39.7499 15.6988C39.762 15.8683 39.7682 16.0177 39.7682 16.1467C39.6053 16.187 39.435 16.2174 39.2567 16.2375C39.078 16.2575 38.8871 16.2679 38.6842 16.2679C38.0996 16.2679 37.6431 16.1266 37.3143 15.8441C36.9855 15.5617 36.8207 15.0937 36.8207 14.4399V10.7903Z" fill="#6B6B6B"/>
<path d="M23.4648 12.9749L25.4887 9.92636C25.5966 9.90977 25.704 9.89751 25.8117 9.88917C25.9192 9.88117 26.0312 9.87695 26.147 9.87695C26.2712 9.87695 26.3892 9.88117 26.501 9.88917C26.6125 9.89751 26.7261 9.90977 26.8423 9.92636L24.8185 12.8884L27.1899 16.2581C27.0741 16.2744 26.9625 16.2868 26.8548 16.2952C26.7472 16.3031 26.6354 16.3074 26.5197 16.3074C26.4036 16.3074 26.2877 16.3031 26.172 16.2952C26.0558 16.2868 25.94 16.2744 25.8244 16.2581L23.4648 12.9749Z" fill="#6B6B6B"/>
<path d="M3.18658 10.9228L3.18634 10.9203H3.07997C3.07448 10.9199 3.06783 10.9199 3.06333 10.9199L3.05742 10.9203H3.03664C2.99742 10.9203 2.64381 10.9154 2.30434 10.7499C1.87977 10.543 1.66441 10.1757 1.66441 9.65787C1.66441 8.10902 3.07942 8.03054 3.36302 8.03054C4.12725 8.03054 4.58138 8.47698 4.71294 9.35773L4.73194 9.48454L5.56086 9.48639V7.59269L5.45756 7.55887C5.41727 7.54617 4.4569 7.23828 3.40024 7.23828C2.32592 7.23828 0.523438 7.58991 0.523438 9.94565C0.523438 12.1544 2.9056 12.193 3.03499 12.1935C3.14423 12.2022 4.82446 12.3609 4.82446 13.7027C4.82446 15.3198 3.84868 15.4553 2.93386 15.4553C2.37227 15.4553 1.42997 15.2583 1.42997 13.9388V13.7899L0.523438 13.7884V15.4584L0.58528 15.5029C0.63048 15.5354 1.7048 16.2988 2.8928 16.2988C4.9598 16.2988 6.05253 15.2915 6.05253 13.3857C6.05253 11.1875 3.79642 10.9474 3.18658 10.9228Z" fill="#6B6B6B"/>
<path d="M37.1598 3.23487H36.2241V2.30469H30.963C30.7677 2.30469 30.6094 2.46201 30.6094 2.65629V7.0381C30.6094 7.23225 30.7677 7.38969 30.963 7.38969H33.6076C33.6098 7.3954 33.6127 7.40147 33.6172 7.40836L34.2417 8.37514C34.272 8.4221 34.3123 8.44466 34.3524 8.44344C34.3925 8.44466 34.4327 8.4221 34.4631 8.37514L35.0877 7.40836C35.0922 7.40147 35.0951 7.3954 35.0973 7.38969H37.7418C37.937 7.38969 38.0956 7.23225 38.0956 7.0381V4.16507H37.1598V3.23487Z" fill="#6B6B6B"/>
<path d="M37.6584 2.73879H36.7227V1.80859H37.6584V2.73879Z" fill="#6B6B6B"/>
<path d="M39.2815 3.67043H38.3457V2.74023H39.2815V3.67043Z" fill="#6B6B6B"/>
<path d="M40.217 1.87158H39.2812V0.941406H40.217V1.87158Z" fill="#6B6B6B"/>
<path d="M32.5163 6.32508C32.489 6.32508 32.4472 6.31601 32.4034 6.27264L31.1869 5.07394C31.1472 5.03494 31.1252 4.9826 31.125 4.92679C31.1247 4.87094 31.1462 4.81849 31.1856 4.77901L31.3755 4.58886C31.4151 4.54912 31.4681 4.52734 31.5245 4.52734C31.5802 4.52734 31.6326 4.54864 31.6721 4.58753L32.5613 5.46382C32.6263 5.52764 32.672 5.64442 32.6676 5.73523L32.6466 6.17868C32.6416 6.27979 32.5776 6.32508 32.5163 6.32508Z" fill="#EE4A49"/>
<path d="M32.0215 5.89761L32.4403 5.3418C32.4403 5.3418 32.5463 5.44632 32.565 5.46583C32.5838 5.48535 32.5858 5.4932 32.5858 5.4932L32.0524 5.92839L32.0215 5.89761Z" fill="#BF1312" fill-opacity="0.8"/>
<path d="M32.0215 5.89761L32.4403 5.3418C32.4403 5.3418 32.5463 5.44632 32.565 5.46583C32.5838 5.48535 32.5858 5.4932 32.5858 5.4932L32.0524 5.92839L32.0215 5.89761Z" fill="#8250A3" fill-opacity="0.2"/>
<path d="M32.56 6.33665C32.5008 6.33665 32.4435 6.31376 32.4028 6.27391L32.0527 5.92984L33.8869 4.43476C33.9205 4.40724 33.9576 4.39258 33.9936 4.39258C34.057 4.39258 34.1264 4.44032 34.1294 4.54473L34.1421 4.94439C34.1453 5.03791 34.0928 5.15295 34.0198 5.2121L32.701 6.2875C32.6621 6.31921 32.612 6.33665 32.56 6.33665Z" fill="#8250A3"/>
<path d="M34.9591 5.7839C34.9253 5.7839 34.8915 5.77193 34.8584 5.74819L33.4824 4.76386L33.6658 4.61475L33.8874 4.43404C33.9296 4.39964 33.9853 4.38086 34.0441 4.38086C34.0968 4.38086 34.1476 4.39638 34.1872 4.4246L34.935 4.95908C35.0108 5.01312 35.0709 5.12393 35.0751 5.21671L35.0925 5.62282C35.0954 5.68616 35.0722 5.72408 35.0522 5.74479C35.0279 5.76997 34.9949 5.7839 34.9591 5.7839Z" fill="#FFAD01"/>
<path d="M34.9987 5.79196C34.9469 5.79196 34.8969 5.77644 34.8579 5.74833L34.4375 5.44759L36.3175 3.84507C36.3554 3.81274 36.4039 3.79492 36.4541 3.79492C36.5156 3.79492 36.5735 3.82148 36.6135 3.86759L36.7891 4.07133C36.8251 4.11337 36.8431 4.16726 36.8387 4.22296C36.8343 4.2787 36.8086 4.32933 36.766 4.3654L35.1575 5.73596C35.1151 5.77207 35.0586 5.79196 34.9987 5.79196Z" fill="#00AB6B"/>
<path d="M33.4451 4.79227L33.8925 5.31524C33.8925 5.31524 34.0009 5.22501 34.0294 5.19957C34.0578 5.17427 34.0567 5.17535 34.0567 5.17535L33.481 4.76346L33.4451 4.79227Z" fill="#4C2F60" fill-opacity="0.8"/>
<path d="M33.4451 4.79227L33.8925 5.31524C33.8925 5.31524 34.0009 5.22501 34.0294 5.19957C34.0578 5.17427 34.0567 5.17535 34.0567 5.17535L33.481 4.76346L33.4451 4.79227Z" fill="#EBA031" fill-opacity="0.2"/>
<path d="M34.4062 5.42727L34.83 4.88672C34.83 4.88672 34.9126 4.94476 34.9324 4.9599C34.9524 4.97516 34.9705 4.99405 34.9705 4.99405L34.4358 5.44824L34.4062 5.42727Z" fill="#996800" fill-opacity="0.8"/>
<path d="M34.4062 5.42727L34.83 4.88672C34.83 4.88672 34.9126 4.94476 34.9324 4.9599C34.9524 4.97516 34.9705 4.99405 34.9705 4.99405L34.4358 5.44824L34.4062 5.42727Z" fill="#00AB6B" fill-opacity="0.2"/>
</g>
<defs>
<clipPath id="clip0_16_1933">
<rect width="40" height="20" fill="white"/>
</clipPath>
</defs>
</svg>
