<svg width="22" height="14" viewBox="0 0 22 14" fill="none" xmlns="http://www.w3.org/2000/svg">
<g clip-path="url(#clip0_16_1991)">
<path d="M0.0820312 4.36262L7.03626 14.0625H22.082V9.7938L15.1278 0.0939183L1.91939 0.0625L0.0820312 4.36262Z" fill="#6B6B6B"/>
<path d="M3.80978 4.30606L3.46501 3.46405H1.87151L1.52674 4.30606H0.681641L2.29827 0.525391H3.06348L4.67801 4.30606H3.81188H3.80978ZM2.66826 1.51611L2.16793 2.73305H3.1686L2.66826 1.51611Z" fill="black"/>
<path d="M7.58269 4.30436L6.41384 2.70622L5.97868 3.15655V4.30436H5.15039V0.548828H5.97868V2.19096L7.50701 0.548828H8.50768L6.97304 2.14278L8.57705 4.30436H7.58059H7.58269Z" fill="black"/>
<path d="M9.0918 4.30436V0.548828H9.92008V4.30436H9.0918Z" fill="black"/>
<path d="M13.289 4.30436L11.4643 1.91657V4.30436H10.6465V0.548828H11.4117L13.1776 2.86122V0.548828H13.9954V4.30436H13.2911H13.289Z" fill="black"/>
</g>
<defs>
<clipPath id="clip0_16_1991">
<rect width="22" height="14" fill="white"/>
</clipPath>
</defs>
</svg>
