<svg width="38" height="10" viewBox="0 0 38 10" fill="none" xmlns="http://www.w3.org/2000/svg">
<path d="M37.3686 8.70548C37.3686 9.42378 36.7912 10.0012 35.9461 10.0012C35.087 10.0012 34.5095 9.42378 34.5095 8.70548C34.5095 7.95902 35.087 7.38156 35.9461 7.38156C36.7912 7.38156 37.3686 7.95902 37.3686 8.70548Z" fill="#6B6B6B"/>
<path d="M33.5133 5.9579C33.5133 8.45082 31.7105 10.0001 29.4006 10.0001C27.0908 10.0001 25.3444 8.45082 25.3444 5.9579C25.3444 3.46498 27.1331 1.91571 29.4288 1.91571C31.7386 1.91571 33.5133 3.46498 33.5133 5.9579ZM27.795 5.9579C27.795 7.28183 28.5274 7.91562 29.4006 7.91562C30.2598 7.91562 31.0626 7.28183 31.0626 5.9579C31.0626 4.6199 30.2739 4.00019 29.4288 4.00019C28.5556 4.00019 27.795 4.6199 27.795 5.9579Z" fill="#6B6B6B"/>
<path d="M22.1793 6.23913V9.88696H19.7709V2.02793H22.1793V3.33777C22.7286 2.50679 23.5877 1.94342 24.644 1.94342V4.49268H23.9821C22.8412 4.49268 22.1793 4.88704 22.1793 6.23913Z" fill="#6B6B6B"/>
<path d="M18.0125 2.02866V9.88769H15.6041V8.81729C15.1252 9.49333 14.2802 9.9722 13.2238 9.9722C11.407 9.9722 10.1816 8.7187 10.1816 6.62014V2.02866H12.576V6.2962C12.576 7.3666 13.1816 7.95814 14.083 7.95814C15.0126 7.95814 15.6041 7.3666 15.6041 6.2962V2.02866H18.0125Z" fill="#6B6B6B"/>
<path d="M3.42248 6.61962L0 0H2.73235L4.64782 4.14078L6.5492 0H9.25338L5.8309 6.61962V9.88718H3.42248V6.61962Z" fill="#6B6B6B"/>
</svg>
